<svg width="196" height="40" viewBox="0 0 196 40" fill="none" xmlns="http://www.w3.org/2000/svg">
<rect x="0.5" y="1.5" width="39" height="36" rx="2.5" fill="white" stroke="white"/>
<path d="M20.7206 31.2512C20.3272 31.66 19.6728 31.66 19.2794 31.2512L8.63907 20.1934C8.02775 19.5581 8.47799 18.5 9.35965 18.5L30.6404 18.5C31.522 18.5 31.9723 19.5581 31.3609 20.1934L20.7206 31.2512Z" fill="#131619"/>
<path d="M19 14.5C19 10.3579 22.3579 7 26.5 7C30.6421 7 33.5312 10 34 14.5C34 18.6421 30.6421 22 26.5 22C22.3579 22 19 18.6421 19 14.5Z" fill="#131619"/>
<path d="M21 14.5C21 18.6421 17.6421 22 13.5 22C9.35786 22 6.46875 19 6 14.5C6 10.3579 9.35786 7 13.5 7C17.6421 7 21 10.3579 21 14.5Z" fill="#131619"/>
<circle cx="20" cy="19" r="1" fill="#131619"/>
<path d="M7 19.5L13.9295 19.5C13.9718 19.5 14.0095 19.4734 14.0237 19.4336L16.4004 12.779C16.4326 12.6889 16.5608 12.6911 16.5898 12.7823L19.9069 23.2075C19.9363 23.2997 20.0665 23.3006 20.0971 23.2088L22.3978 16.3067C22.4289 16.2134 22.5618 16.2163 22.5888 16.3108L23.4793 19.4275C23.4915 19.4704 23.5308 19.5 23.5754 19.5L34 19.5" stroke="white"/>
<path d="M47.656 33V9.16H50.536L59.464 21.864H57.992L66.856 9.16H69.736V33H66.568V13.128L67.688 13.48L58.824 25.96H58.568L49.8 13.48L50.792 13.128V33H47.656ZM82.615 33.384C80.951 33.384 79.4683 32.9893 78.167 32.2C76.8657 31.4107 75.8417 30.3333 75.095 28.968C74.3483 27.5813 73.975 26.0347 73.975 24.328C73.975 22.6 74.3377 21.064 75.063 19.72C75.8097 18.376 76.8123 17.32 78.071 16.552C79.351 15.7627 80.7803 15.368 82.359 15.368C83.639 15.368 84.7697 15.6027 85.751 16.072C86.7537 16.52 87.5963 17.1387 88.279 17.928C88.983 18.696 89.5163 19.5813 89.879 20.584C90.263 21.5653 90.455 22.5893 90.455 23.656C90.455 23.8907 90.4337 24.1573 90.391 24.456C90.3697 24.7333 90.3377 25 90.295 25.256H76.151V22.696H88.567L87.159 23.848C87.351 22.7387 87.2443 21.7467 86.839 20.872C86.4337 19.9973 85.8363 19.304 85.047 18.792C84.2577 18.28 83.3617 18.024 82.359 18.024C81.3563 18.024 80.439 18.28 79.607 18.792C78.775 19.304 78.1243 20.04 77.655 21C77.207 21.9387 77.0257 23.0587 77.111 24.36C77.0257 25.6187 77.2177 26.728 77.687 27.688C78.1777 28.6267 78.8603 29.3627 79.735 29.896C80.631 30.408 81.6017 30.664 82.647 30.664C83.799 30.664 84.7697 30.3973 85.559 29.864C86.3483 29.3307 86.9883 28.648 87.479 27.816L89.975 29.096C89.6337 29.8853 89.1003 30.6107 88.375 31.272C87.671 31.912 86.8283 32.424 85.847 32.808C84.887 33.192 83.8097 33.384 82.615 33.384ZM102.175 33.384C100.554 33.384 99.0926 32.9893 97.7913 32.2C96.5113 31.4107 95.4979 30.3333 94.7513 28.968C94.0046 27.6027 93.6313 26.0773 93.6313 24.392C93.6313 22.664 94.0046 21.128 94.7513 19.784C95.4979 18.4187 96.5113 17.3413 97.7913 16.552C99.0926 15.7627 100.554 15.368 102.175 15.368C103.605 15.368 104.874 15.6773 105.983 16.296C107.093 16.8933 107.967 17.704 108.607 18.728L108.127 19.464V8.776H111.135V33H108.223V29.32L108.607 29.832C108.01 30.9627 107.135 31.8373 105.983 32.456C104.853 33.0747 103.583 33.384 102.175 33.384ZM102.431 30.504C103.519 30.504 104.49 30.2373 105.343 29.704C106.197 29.1707 106.869 28.4453 107.359 27.528C107.871 26.5893 108.127 25.544 108.127 24.392C108.127 23.2187 107.871 22.1733 107.359 21.256C106.869 20.3173 106.197 19.5813 105.343 19.048C104.49 18.5147 103.519 18.248 102.431 18.248C101.365 18.248 100.394 18.5253 99.5193 19.08C98.6659 19.6133 97.9939 20.3387 97.5033 21.256C97.0126 22.152 96.7673 23.1973 96.7673 24.392C96.7673 25.544 97.0126 26.5893 97.5033 27.528C97.9939 28.4453 98.6659 29.1707 99.5193 29.704C100.373 30.2373 101.343 30.504 102.431 30.504ZM116.094 33V9.16H126.11C127.539 9.16 128.766 9.416 129.79 9.928C130.835 10.44 131.635 11.1653 132.19 12.104C132.766 13.0213 133.054 14.12 133.054 15.4C133.054 16.5733 132.744 17.64 132.126 18.6C131.528 19.5387 130.643 20.2747 129.47 20.808L129.438 19.624C130.462 20.008 131.304 20.52 131.966 21.16C132.648 21.7787 133.16 22.504 133.502 23.336C133.843 24.1467 134.014 25.0107 134.014 25.928C134.014 28.1253 133.31 29.8533 131.902 31.112C130.494 32.3707 128.574 33 126.142 33H116.094ZM119.23 30.12H126.27C127.656 30.12 128.766 29.7467 129.597 29C130.43 28.2533 130.846 27.24 130.846 25.96C130.846 24.68 130.43 23.6667 129.597 22.92C128.766 22.152 127.656 21.768 126.27 21.768H119.23V30.12ZM119.23 18.952H126.046C127.198 18.952 128.126 18.6213 128.83 17.96C129.534 17.2773 129.885 16.4133 129.885 15.368C129.885 14.28 129.534 13.448 128.83 12.872C128.126 12.296 127.198 12.008 126.046 12.008H119.23V18.952ZM146.09 33.384C144.426 33.384 142.922 33 141.578 32.232C140.234 31.4427 139.167 30.3653 138.378 29C137.588 27.6347 137.194 26.088 137.194 24.36C137.194 22.632 137.578 21.096 138.346 19.752C139.135 18.408 140.202 17.3413 141.546 16.552C142.89 15.7627 144.404 15.368 146.09 15.368C147.754 15.368 149.258 15.7627 150.602 16.552C151.946 17.32 153.002 18.376 153.77 19.72C154.559 21.064 154.954 22.6107 154.954 24.36C154.954 26.1093 154.548 27.6667 153.738 29.032C152.927 30.376 151.85 31.4427 150.506 32.232C149.183 33 147.711 33.384 146.09 33.384ZM146.09 30.504C147.156 30.504 148.116 30.2373 148.97 29.704C149.844 29.1707 150.527 28.4347 151.018 27.496C151.53 26.5573 151.786 25.512 151.786 24.36C151.786 23.1867 151.53 22.152 151.018 21.256C150.527 20.3387 149.844 19.6133 148.97 19.08C148.116 18.5253 147.156 18.248 146.09 18.248C145.002 18.248 144.02 18.5253 143.146 19.08C142.292 19.6133 141.61 20.3387 141.098 21.256C140.586 22.152 140.33 23.1867 140.33 24.36C140.33 25.512 140.586 26.5573 141.098 27.496C141.61 28.4347 142.292 29.1707 143.146 29.704C144.02 30.2373 145.002 30.504 146.09 30.504ZM167.027 33.384C165.363 33.384 163.859 33 162.515 32.232C161.171 31.4427 160.105 30.3653 159.315 29C158.526 27.6347 158.131 26.088 158.131 24.36C158.131 22.632 158.515 21.096 159.283 19.752C160.073 18.408 161.139 17.3413 162.483 16.552C163.827 15.7627 165.342 15.368 167.027 15.368C168.691 15.368 170.195 15.7627 171.539 16.552C172.883 17.32 173.939 18.376 174.707 19.72C175.497 21.064 175.891 22.6107 175.891 24.36C175.891 26.1093 175.486 27.6667 174.675 29.032C173.865 30.376 172.787 31.4427 171.443 32.232C170.121 33 168.649 33.384 167.027 33.384ZM167.027 30.504C168.094 30.504 169.054 30.2373 169.907 29.704C170.782 29.1707 171.465 28.4347 171.955 27.496C172.467 26.5573 172.723 25.512 172.723 24.36C172.723 23.1867 172.467 22.152 171.955 21.256C171.465 20.3387 170.782 19.6133 169.907 19.08C169.054 18.5253 168.094 18.248 167.027 18.248C165.939 18.248 164.958 18.5253 164.083 19.08C163.23 19.6133 162.547 20.3387 162.035 21.256C161.523 22.152 161.267 23.1867 161.267 24.36C161.267 25.512 161.523 26.5573 162.035 27.496C162.547 28.4347 163.23 29.1707 164.083 29.704C164.958 30.2373 165.939 30.504 167.027 30.504ZM179.773 33V8.776H182.749V25.384L181.533 25.096L190.685 15.752H194.493L187.869 22.696L194.941 33H191.421L184.957 23.656L186.813 23.56L181.789 28.808L182.749 26.632V33H179.773Z" fill="white"/>
</svg>
