<svg width="40" height="37" viewBox="0 0 40 37" fill="none" xmlns="http://www.w3.org/2000/svg">
<rect x="0.5" y="0.5" width="39" height="36" rx="2.5" fill="white" stroke="white"/>
<path d="M20.7206 30.2512C20.3272 30.66 19.6728 30.66 19.2794 30.2512L8.63907 19.1934C8.02775 18.5581 8.47799 17.5 9.35965 17.5L30.6404 17.5C31.522 17.5 31.9723 18.5581 31.3609 19.1934L20.7206 30.2512Z" fill="#131619"/>
<path d="M19 13.5C19 9.35786 22.3579 6 26.5 6C30.6421 6 33.5312 9 34 13.5C34 17.6421 30.6421 21 26.5 21C22.3579 21 19 17.6421 19 13.5Z" fill="#131619"/>
<path d="M21 13.5C21 17.6421 17.6421 21 13.5 21C9.35786 21 6.46875 18 6 13.5C6 9.35786 9.35786 6 13.5 6C17.6421 6 21 9.35786 21 13.5Z" fill="#131619"/>
<circle cx="20" cy="18" r="1" fill="#131619"/>
<path d="M7 18.5L13.9295 18.5C13.9718 18.5 14.0095 18.4734 14.0237 18.4336L16.4004 11.779C16.4326 11.6889 16.5608 11.6911 16.5898 11.7823L19.9069 22.2075C19.9363 22.2997 20.0665 22.3006 20.0971 22.2088L22.3978 15.3067C22.4289 15.2134 22.5618 15.2163 22.5888 15.3108L23.4793 18.4275C23.4915 18.4704 23.5308 18.5 23.5754 18.5L34 18.5" stroke="white"/>
</svg>
